<svg width="64" height="64" viewBox="0 0 64 64" fill="none" xmlns="http://www.w3.org/2000/svg">
  <defs>
    <linearGradient id="g1" x1="0" y1="0" x2="64" y2="64" gradientUnits="userSpaceOnUse">
      <stop stop-color="#10B981"/>
      <stop offset="1" stop-color="#3B82F6"/>
    </linearGradient>
    <linearGradient id="g2" x1="0" y1="0" x2="64" y2="64" gradientUnits="userSpaceOnUse">
      <stop stop-color="#6366F1"/>
      <stop offset="1" stop-color="#A855F7"/>
    </linearGradient>
  </defs>
  <rect x="2" y="2" width="60" height="60" rx="12" fill="url(#g1)"/>
  <!-- Grid -->
  <g stroke="rgba(255,255,255,0.35)" stroke-width="1">
    <path d="M14 10V54"/>
    <path d="M26 10V54"/>
    <path d="M38 10V54"/>
    <path d="M50 10V54"/>
    <path d="M10 14H54"/>
    <path d="M10 26H54"/>
    <path d="M10 38H54"/>
    <path d="M10 50H54"/>
  </g>
  <!-- Pair highlight -->
  <rect x="26" y="26" width="12" height="12" rx="2" fill="white" fill-opacity="0.9"/>
  <rect x="38" y="26" width="12" height="12" rx="2" fill="white" fill-opacity="0.9"/>
  <text x="32" y="34" font-family="Inter, Arial" font-size="8" font-weight="700" text-anchor="middle" fill="#111827">6</text>
  <text x="44" y="34" font-family="Inter, Arial" font-size="8" font-weight="700" text-anchor="middle" fill="#111827">4</text>
  <!-- Badge target 10 -->
  <g transform="translate(8,8)">
    <rect width="20" height="12" rx="6" fill="url(#g2)"/>
    <text x="10" y="9" font-family="Inter, Arial" font-size="8" font-weight="800" text-anchor="middle" fill="#fff">10</text>
  </g>
</svg>
