<svg width="24" height="24" viewBox="0 0 24 24" fill="none" xmlns="http://www.w3.org/2000/svg">
  <style>
    @keyframes rotate {
      0% { transform: rotateX(0deg) rotateY(0deg) rotateZ(0deg); }
      25% { transform: rotateX(15deg) rotateY(15deg) rotateZ(5deg); }
      50% { transform: rotateX(0deg) rotateY(30deg) rotateZ(0deg); }
      75% { transform: rotateX(-15deg) rotateY(15deg) rotateZ(-5deg); }
      100% { transform: rotateX(0deg) rotateY(0deg) rotateZ(0deg); }
    }
    
    @keyframes glow {
      0%, 100% { filter: drop-shadow(0 0 2px currentColor); }
      50% { filter: drop-shadow(0 0 8px currentColor) drop-shadow(0 0 12px currentColor); }
    }
    
    .cube {
      animation: rotate 4s ease-in-out infinite;
      transform-origin: center;
    }
    
    .cube-face {
      animation: glow 3s ease-in-out infinite;
    }
  </style>
  
  <g class="cube">
    <!-- Face avant -->
    <path class="cube-face" d="M4 8L12 4L20 8L12 12L4 8Z" fill="currentColor" opacity="0.9"/>
    
    <!-- Face arrière -->
    <path class="cube-face" d="M4 16L12 20L20 16L12 12L4 16Z" fill="currentColor" opacity="0.7"/>
    
    <!-- Face gauche -->
    <path class="cube-face" d="M4 8L4 16L12 20L12 12L4 8Z" fill="currentColor" opacity="0.8"/>
    
    <!-- Face droite -->
    <path class="cube-face" d="M20 8L20 16L12 20L12 12L20 8Z" fill="currentColor" opacity="0.8"/>
    
    <!-- Face supérieure -->
    <path class="cube-face" d="M4 8L12 4L20 8L12 12L4 8Z" fill="currentColor" opacity="1"/>
    
    <!-- Face inférieure -->
    <path class="cube-face" d="M4 16L12 20L20 16L12 12L4 16Z" fill="currentColor" opacity="0.6"/>
  </g>
</svg>
